# Blender v3.0.0 OBJ File: ''
# www.blender.org
mtllib import_test.mtl
o A_Cube_1
v -2.000000 1.000000 -1.000000
v -2.000000 -1.000000 -1.000000
v -2.000000 -1.000000 1.000000
v -4.000000 1.000000 -1.000000
v -4.000000 -1.000000 -1.000000
v -4.000000 1.000000 1.000000
v -4.000000 -1.000000 1.000000
v -2.000000 1.000000 -0.073017
v -3.073017 1.000000 1.000000
v -2.000000 -0.073017 1.000000
vt 0.625000 0.500000
vt 0.875000 0.500000
vt 0.875000 0.750000
vt 0.759127 0.750000
vt 0.625000 0.615873
vt 0.375000 0.000000
vt 0.625000 0.000000
vt 0.625000 0.250000
vt 0.375000 0.250000
vt 0.125000 0.500000
vt 0.375000 0.500000
vt 0.375000 0.750000
vt 0.125000 0.750000
vt 0.490873 0.750000
vt 0.625000 0.884127
vt 0.625000 1.000000
vt 0.375000 1.000000
vn 0.0000 1.0000 0.0000
vn -1.0000 0.0000 0.0000
vn 0.0000 -1.0000 0.0000
vn 0.0000 0.0000 1.0000
vn 0.0000 0.0000 -1.0000
vn 0.5774 0.5774 0.5774
vn 1.0000 0.0000 0.0000
usemtl Material
s off
f 1/1/1 4/2/1 6/3/1 9/4/1 8/5/1
f 7/6/2 6/7/2 4/8/2 5/9/2
f 5/10/3 2/11/3 3/12/3 7/13/3
f 3/12/4 10/14/4 9/15/4 6/16/4 7/17/4
f 5/9/5 4/8/5 1/1/5 2/11/5
f 8/5/6 9/4/6 10/14/6
f 2/11/7 1/1/7 8/5/7 10/14/7 3/12/7
o C_Cube_3
v 4.949105 1.000000 -0.000000
v 4.949105 -1.000000 -0.000000
v 3.534892 1.000000 1.414214
v 3.534892 -1.000000 1.414214
v 3.534892 1.000000 -1.414214
v 3.534892 -1.000000 -1.414214
v 2.120678 1.000000 0.000000
v 2.120678 -1.000000 0.000000
vt 0.625000 0.500000
vt 0.875000 0.500000
vt 0.875000 0.750000
vt 0.625000 0.750000
vt 0.375000 0.750000
vt 0.625000 1.000000
vt 0.375000 1.000000
vt 0.375000 0.000000
vt 0.625000 0.000000
vt 0.625000 0.250000
vt 0.375000 0.250000
vt 0.125000 0.500000
vt 0.375000 0.500000
vt 0.125000 0.750000
vn 0.0000 1.0000 0.0000
vn -0.7071 0.0000 0.7071
vn -0.7071 0.0000 -0.7071
vn 0.0000 -1.0000 0.0000
vn 0.7071 0.0000 0.7071
vn 0.7071 0.0000 -0.7071
usemtl Material
s off
f 11/18/8 15/19/8 17/20/8 13/21/8
f 14/22/9 13/21/9 17/23/9 18/24/9
f 18/25/10 17/26/10 15/27/10 16/28/10
f 16/29/11 12/30/11 14/22/11 18/31/11
f 12/30/12 11/18/12 13/21/12 14/22/12
f 16/28/13 15/27/13 11/18/13 12/30/13
o B_Cube_2
v 0.357470 4.794958 -0.933380
v 1.465865 2.627699 -1.058648
v 0.534135 4.770169 1.058648
v 1.642530 2.602911 0.933380
v -0.763688 4.947240 -0.933380
v -1.353145 2.585443 -1.058648
v -0.646855 4.812426 1.058648
v -1.236312 2.450628 0.933380
vt 0.625000 0.500000
vt 0.875000 0.500000
vt 0.875000 0.750000
vt 0.625000 0.750000
vt 0.375000 0.750000
vt 0.625000 1.000000
vt 0.375000 1.000000
vt 0.375000 0.000000
vt 0.625000 0.000000
vt 0.625000 0.250000
vt 0.375000 0.250000
vt 0.125000 0.500000
vt 0.375000 0.500000
vt 0.125000 0.750000
vn 0.0842 0.9959 0.0337
vn 0.0015 -0.0551 0.9985
vn -0.9686 0.2379 0.0729
vn 0.0341 -0.9985 -0.0425
vn 0.8862 0.4575 -0.0729
vn 0.0015 0.0554 -0.9985
usemtl Material
s off
f 19/32/14 23/33/14 25/34/14 21/35/14
f 22/36/15 21/35/15 25/37/15 26/38/15
f 26/39/16 25/40/16 23/41/16 24/42/16
f 24/43/17 20/44/17 22/36/17 26/45/17
f 20/44/18 19/32/18 21/35/18 22/36/18
f 24/42/19 23/41/19 19/32/19 20/44/19
o D_Cube_4
v 1.413750 1.000000 3.982354
v 1.413750 -1.000000 3.982354
v -0.000464 1.000000 5.396568
v -0.000464 -1.000000 5.396568
v -0.000464 1.000000 2.568141
v -0.000464 -1.000000 2.568141
v -1.414677 1.000000 3.982354
v -1.414677 -1.000000 3.982354
v -0.000464 4.010715 4.464622
v -0.482732 4.010715 3.982354
v 0.481805 4.010715 3.982354
v -0.000464 4.010715 3.500086
v -0.000464 2.505357 5.432954
v -1.451063 2.505357 3.982354
v -0.000464 2.505357 2.531755
v 1.450136 2.505357 3.982354
v 3.220516 0.742271 6.153604
v 3.220516 -0.742271 6.153604
v 2.170786 0.742271 7.203334
v 2.170786 -0.742271 7.203334
v 3.402757 1.000000 5.971362
v 3.402757 -1.000000 5.971362
v 1.988544 1.000000 7.385575
v 1.988544 -1.000000 7.385575
v 5.344792 0.742271 8.277880
v 5.344792 -0.742271 8.277880
v 4.295062 0.742271 9.327610
v 4.295062 -0.742271 9.327610
v -0.725613 -1.230306 2.776574
v -1.206245 -1.230306 3.257205
v 0.857282 1.008246 4.359469
v 0.376651 1.008246 4.840100
v -1.206245 1.008246 3.257205
v -0.725613 1.008246 2.776574
v 0.376651 -1.230306 4.840100
v 0.857282 -1.230306 4.359469
v 0.161880 4.378067 4.011767
v 0.028950 4.378067 4.144698
v -0.510842 4.378067 3.604907
v -0.377912 4.378067 3.471976
v 0.884433 2.693156 4.373044
v 0.390226 2.693156 4.867251
v -1.233395 2.693156 3.243630
v -0.739188 2.693156 2.749423
v 3.083531 1.008246 6.585717
v 2.602900 1.008246 7.066349
v 2.602900 -1.230306 7.066349
v 3.083531 -1.230306 6.585717
v 3.015538 0.719776 6.653710
v 2.670893 0.719776 6.998356
v 2.670893 -0.941837 6.998356
v 3.015538 -0.941837 6.653710
v 5.393190 0.719776 9.031363
v 5.048545 0.719776 9.376008
v 5.048545 -0.941837 9.376008
v 5.393190 -0.941837 9.031363
v -7.873024 1.000000 3.982354
v -7.873024 -1.000000 3.982354
v -9.287237 1.000000 5.396568
v -9.287237 -1.000000 5.396568
v -9.287238 1.000000 2.568141
v -9.287238 -1.000000 2.568141
v -10.701451 1.000000 3.982354
v -10.701451 -1.000000 3.982354
v -9.287237 4.010715 4.464623
v -9.769506 4.010715 3.982354
v -8.804969 4.010715 3.982354
v -9.287237 4.010715 3.500085
v -9.287237 2.505357 5.432954
v -10.737837 2.505357 3.982354
v -9.287237 2.505357 2.531755
v -7.836638 2.505357 3.982354
v -6.066258 0.742271 6.153604
v -6.066258 -0.742271 6.153604
v -7.115989 0.742271 7.203334
v -7.115989 -0.742271 7.203334
v -5.884017 1.000000 5.971362
v -5.884017 -1.000000 5.971362
v -7.298230 1.000000 7.385575
v -7.298230 -1.000000 7.385575
v -3.941982 0.742271 8.277880
v -3.941982 -0.742271 8.277880
v -4.991712 0.742271 9.327610
v -4.991712 -0.742271 9.327610
v -10.012386 -1.230306 2.776574
v -10.493019 -1.230306 3.257205
v -8.429491 1.008246 4.359469
v -8.910124 1.008246 4.840101
v -10.493019 1.008246 3.257205
v -10.012386 1.008246 2.776574
v -8.910124 -1.230306 4.840101
v -8.429491 -1.230306 4.359469
v -9.124895 4.378067 4.011767
v -9.257824 4.378067 4.144698
v -9.797615 4.378067 3.604907
v -9.664686 4.378067 3.471976
v -8.402341 2.693156 4.373044
v -8.896547 2.693156 4.867251
v -10.520168 2.693156 3.243630
v -10.025963 2.693156 2.749423
v -6.203243 1.008246 6.585717
v -6.683874 1.008246 7.066349
v -6.683874 -1.230306 7.066349
v -6.203243 -1.230306 6.585717
v -6.271236 0.719776 6.653710
v -6.615882 0.719776 6.998356
v -6.615882 -0.941837 6.998356
v -6.271235 -0.941837 6.653710
v -3.893584 0.719776 9.031363
v -4.238230 0.719776 9.376008
v -4.238229 -0.941837 9.376007
v -3.893584 -0.941837 9.031363
vt 0.625000 1.049335
vt 0.625000 0.750000
vt 0.625000 0.750000
vt 0.625000 1.000000
vt 0.375000 0.750000
vt 0.625000 0.750000
vt 0.625000 1.000000
vt 0.375000 1.000000
vt 0.375000 0.166667
vt 0.625000 0.166667
vt 0.625000 0.250000
vt 0.375000 0.250000
vt 0.125000 0.666667
vt 0.375000 0.666667
vt 0.125000 0.750000
vt 0.375000 0.750000
vt 0.625000 0.750000
vt 0.625000 0.500000
vt 0.375000 0.500000
vt 0.625000 0.666667
vt 0.875000 0.666667
vt 0.875000 0.750000
vt 0.625000 0.050443
vt 0.625000 -0.049335
vt 0.625000 0.000000
vt 0.625000 0.083333
vt 0.625000 0.583333
vt 0.625000 0.500000
vt 0.625000 0.500000
vt 0.625000 0.583333
vt 0.625000 0.250000
vt 0.625000 0.250000
vt 0.625000 0.583333
vt 0.625000 0.083333
vt 0.625000 0.000000
vt 0.407216 0.594072
vt 0.407216 0.532216
vt 0.407216 0.532216
vt 0.407216 0.594072
vt 0.625000 0.500000
vt 0.375000 0.500000
vt 0.375000 0.583333
vt 0.375000 0.583333
vt 0.625000 0.666667
vt 0.625000 0.666667
vt 0.592784 0.532216
vt 0.407216 0.717784
vt 0.592784 0.717784
vt 0.592784 0.594072
vt 0.625000 0.583333
vt 0.407216 0.655928
vt 0.375000 0.666667
vt 0.407216 0.655928
vt 0.592784 0.655928
vt 0.592784 0.717784
vt 0.407216 0.717784
vt 0.592784 0.655928
vt 0.592784 0.532216
vt 0.592784 0.594072
vt 0.625000 0.150222
vt 0.625000 0.666667
vt 0.625000 0.166667
vt 0.875000 0.500000
vt 0.875000 0.583333
vt 0.125000 0.500000
vt 0.125000 0.583333
vt 0.375000 0.000000
vt 0.375000 0.083333
vt 0.625000 1.049335
vt 0.625000 0.750000
vt 0.625000 0.750000
vt 0.625000 1.000000
vt 0.375000 0.750000
vt 0.625000 0.750000
vt 0.625000 1.000000
vt 0.375000 1.000000
vt 0.375000 0.166667
vt 0.625000 0.166667
vt 0.625000 0.250000
vt 0.375000 0.250000
vt 0.125000 0.666667
vt 0.375000 0.666667
vt 0.125000 0.750000
vt 0.375000 0.750000
vt 0.625000 0.750000
vt 0.625000 0.500000
vt 0.375000 0.500000
vt 0.625000 0.666667
vt 0.875000 0.666667
vt 0.875000 0.750000
vt 0.625000 0.050443
vt 0.625000 -0.049335
vt 0.625000 0.000000
vt 0.625000 0.083333
vt 0.625000 0.583333
vt 0.625000 0.500000
vt 0.625000 0.500000
vt 0.625000 0.583333
vt 0.625000 0.250000
vt 0.625000 0.250000
vt 0.625000 0.583333
vt 0.625000 0.083333
vt 0.625000 0.000000
vt 0.407216 0.594072
vt 0.407216 0.532216
vt 0.407216 0.532216
vt 0.407216 0.594072
vt 0.625000 0.500000
vt 0.375000 0.500000
vt 0.375000 0.583333
vt 0.375000 0.583333
vt 0.625000 0.666667
vt 0.625000 0.666667
vt 0.592784 0.532216
vt 0.407216 0.717784
vt 0.592784 0.717784
vt 0.592784 0.594072
vt 0.625000 0.583333
vt 0.407216 0.655928
vt 0.375000 0.666667
vt 0.407216 0.655928
vt 0.592784 0.655928
vt 0.592784 0.717784
vt 0.407216 0.717784
vt 0.592784 0.655928
vt 0.592784 0.532216
vt 0.592784 0.594072
vt 0.625000 0.150222
vt 0.625000 0.666667
vt 0.625000 0.166667
vt 0.875000 0.500000
vt 0.875000 0.583333
vt 0.125000 0.500000
vt 0.125000 0.583333
vt 0.375000 0.000000
vt 0.375000 0.083333
vn -0.6437 0.4140 0.6437
vn -0.7071 0.0000 0.7071
vn -0.2762 0.0000 -0.9611
vn -0.2329 -0.9442 0.2329
vn 0.7071 0.0000 -0.7071
vn -0.5868 0.5580 0.5868
vn -0.8845 0.4599 0.0785
vn 0.5826 0.3896 0.7133
vn 0.6437 0.4140 -0.6437
vn 0.7070 -0.0171 -0.7070
vn 0.5629 -0.0147 0.8264
vn -0.9592 -0.0203 -0.2819
vn -0.7070 -0.0171 0.7070
vn 0.2628 -0.9284 -0.2628
vn 0.2329 -0.9442 -0.2329
vn -0.0088 0.9999 0.0088
vn 0.7071 0.0000 0.7071
vn 0.8846 -0.2159 0.4133
vn 0.4742 0.1778 0.8623
vn -0.0641 0.0000 0.9979
vn 0.0319 0.9990 -0.0319
vn -0.0319 0.9990 0.0319
vn 0.0000 1.0000 0.0000
vn 0.9979 0.0000 -0.0641
vn 0.8623 0.1778 0.4742
vn 0.4133 -0.2159 0.8846
vn 0.0088 0.9999 -0.0088
vn 0.0000 -1.0000 0.0000
vn -0.2628 -0.9284 0.2628
vn -0.2819 -0.0203 -0.9592
vn -0.7070 -0.0171 -0.7070
vn 0.8264 -0.0147 0.5629
vn 0.7070 -0.0171 0.7070
vn 0.7133 0.3896 0.5826
vn 0.6437 0.4140 0.6437
vn 0.0785 0.4599 -0.8845
vn -0.6437 0.4140 -0.6437
vn 0.5868 0.5580 -0.5868
vn -0.9611 0.0000 -0.2762
vn -0.7071 0.0000 -0.7071
vn -0.2763 0.0000 -0.9611
usemtl Material
s off
f 40/46/20 39/47/20 35/48/20 36/49/20
f 30/50/21 29/51/21 33/52/21 34/53/21
f 55/54/22 60/55/22 31/56/22 32/57/22
f 56/58/23 61/59/23 30/50/23 34/60/23
f 29/51/21 30/50/21 50/61/21 49/62/21
f 32/57/24 31/56/24 27/63/24 28/64/24
f 64/65/25 65/66/25 36/67/25 35/48/25
f 69/68/26 40/69/26 36/70/26 65/71/26
f 67/72/27 42/73/27 37/74/27 63/75/27
f 42/73/28 41/76/28 38/77/28 37/74/28
f 27/63/29 31/56/29 41/76/29 42/73/29
f 57/78/30 27/63/30 42/73/30 67/72/30
f 59/79/31 33/80/31 40/69/31 69/68/31
f 33/52/32 29/51/32 39/47/32 40/46/32
f 78/81/33 44/82/33 52/83/33 82/84/33
f 28/64/24 27/63/24 47/85/24 48/86/24
f 62/87/34 28/64/34 48/86/34 74/88/34
f 58/89/35 29/51/35 49/62/35 72/90/35
f 43/91/36 44/82/36 48/86/36 47/85/36
f 46/92/36 45/93/36 49/62/36 50/61/36
f 75/94/37 43/91/37 47/85/37 71/95/37
f 77/96/38 46/92/38 50/61/38 73/97/38
f 81/98/39 80/99/39 53/100/39 54/101/39
f 45/93/21 46/92/21 54/101/21 53/100/21
f 76/102/40 45/93/40 53/100/40 80/99/40
f 44/82/24 43/91/24 51/103/24 52/83/24
f 43/91/41 75/94/41 79/104/41 51/103/41
f 75/94/42 76/102/42 80/99/42 79/104/42
f 52/83/43 51/103/43 79/104/43 82/84/43
f 82/84/36 79/104/36 80/99/36 81/98/36
f 44/82/44 78/81/44 74/88/44 48/86/44
f 78/81/36 77/96/36 73/97/36 74/88/36
f 45/93/45 76/102/45 72/90/45 49/62/45
f 76/102/36 75/94/36 71/95/36 72/90/36
f 27/63/46 57/78/46 71/95/46 47/85/46
f 57/78/42 58/89/42 72/90/42 71/95/42
f 30/50/23 61/59/23 73/97/23 50/61/23
f 61/59/47 62/87/47 74/88/47 73/97/47
f 46/92/48 77/96/48 81/98/48 54/101/48
f 77/96/47 78/81/47 82/84/47 81/98/47
f 31/56/49 60/55/49 70/105/49 41/76/49
f 60/55/50 59/79/50 69/68/50 70/105/50
f 29/51/51 58/89/51 68/106/51 39/47/51
f 58/89/52 57/78/52 67/72/52 68/106/52
f 39/47/53 68/106/53 64/65/53 35/48/53
f 68/106/54 67/72/54 63/75/54 64/65/54
f 41/76/55 70/105/55 66/107/55 38/77/55
f 70/105/56 69/68/56 65/71/56 66/107/56
f 37/74/57 38/108/57 66/109/57 63/75/57
f 63/75/42 66/109/42 65/66/42 64/65/42
f 32/110/34 28/64/34 62/87/34 55/111/34
f 55/111/47 62/87/47 61/59/47 56/58/47
f 34/112/58 33/80/58 59/79/58 56/113/58
f 56/113/59 59/79/59 60/55/59 55/54/59
f 96/114/20 95/115/20 91/116/20 92/117/20
f 86/118/21 85/119/21 89/120/21 90/121/21
f 111/122/60 116/123/60 87/124/60 88/125/60
f 112/126/23 117/127/23 86/118/23 90/128/23
f 85/119/21 86/118/21 106/129/21 105/130/21
f 88/125/24 87/124/24 83/131/24 84/132/24
f 120/133/25 121/134/25 92/135/25 91/116/25
f 125/136/26 96/137/26 92/138/26 121/139/26
f 123/140/27 98/141/27 93/142/27 119/143/27
f 98/141/28 97/144/28 94/145/28 93/142/28
f 83/131/29 87/124/29 97/144/29 98/141/29
f 113/146/30 83/131/30 98/141/30 123/140/30
f 115/147/31 89/148/31 96/137/31 125/136/31
f 89/120/32 85/119/32 95/115/32 96/114/32
f 134/149/33 100/150/33 108/151/33 138/152/33
f 84/132/24 83/131/24 103/153/24 104/154/24
f 118/155/34 84/132/34 104/154/34 130/156/34
f 114/157/35 85/119/35 105/130/35 128/158/35
f 99/159/36 100/150/36 104/154/36 103/153/36
f 102/160/36 101/161/36 105/130/36 106/129/36
f 131/162/37 99/159/37 103/153/37 127/163/37
f 133/164/38 102/160/38 106/129/38 129/165/38
f 137/166/39 136/167/39 109/168/39 110/169/39
f 101/161/21 102/160/21 110/169/21 109/168/21
f 132/170/40 101/161/40 109/168/40 136/167/40
f 100/150/24 99/159/24 107/171/24 108/151/24
f 99/159/41 131/162/41 135/172/41 107/171/41
f 131/162/42 132/170/42 136/167/42 135/172/42
f 108/151/43 107/171/43 135/172/43 138/152/43
f 138/152/36 135/172/36 136/167/36 137/166/36
f 100/150/44 134/149/44 130/156/44 104/154/44
f 134/149/36 133/164/36 129/165/36 130/156/36
f 101/161/45 132/170/45 128/158/45 105/130/45
f 132/170/36 131/162/36 127/163/36 128/158/36
f 83/131/46 113/146/46 127/163/46 103/153/46
f 113/146/42 114/157/42 128/158/42 127/163/42
f 86/118/23 117/127/23 129/165/23 106/129/23
f 117/127/47 118/155/47 130/156/47 129/165/47
f 102/160/48 133/164/48 137/166/48 110/169/48
f 133/164/47 134/149/47 138/152/47 137/166/47
f 87/124/49 116/123/49 126/173/49 97/144/49
f 116/123/50 115/147/50 125/136/50 126/173/50
f 85/119/51 114/157/51 124/174/51 95/115/51
f 114/157/52 113/146/52 123/140/52 124/174/52
f 95/115/53 124/174/53 120/133/53 91/116/53
f 124/174/54 123/140/54 119/143/54 120/133/54
f 97/144/55 126/173/55 122/175/55 94/145/55
f 126/173/56 125/136/56 121/139/56 122/175/56
f 93/142/57 94/176/57 122/177/57 119/143/57
f 119/143/42 122/177/42 121/134/42 120/133/42
f 88/178/34 84/132/34 118/155/34 111/179/34
f 111/179/47 118/155/47 117/127/47 112/126/47
f 90/180/58 89/148/58 115/147/58 112/181/58
f 112/181/59 115/147/59 116/123/59 111/122/59
