# Blender v3.2.2 OBJ File: ''
# www.blender.org
mtllib capsuleBody.mtl
o Icosphere.003
v 0.587786 0.500000 0.809017
v 0.309017 0.500000 0.951056
v 0.309017 -0.500000 0.951056
v 0.587786 -0.500000 0.809017
v 0.951058 0.500000 -0.309013
v 1.000000 0.500000 0.000000
v 1.000000 -0.500000 0.000000
v 0.951058 -0.500000 -0.309013
v -0.309016 0.500000 0.951057
v -0.587786 0.500000 0.809017
v -0.587786 -0.500000 0.809017
v -0.309016 -0.500000 0.951057
v -1.000000 0.499999 0.000000
v -0.951058 0.500000 -0.309013
v -0.951058 -0.500000 -0.309013
v -1.000000 -0.500001 0.000000
v -0.587786 0.500000 -0.809017
v -0.309017 0.500001 -0.951056
v -0.309017 -0.499999 -0.951056
v -0.587786 -0.500000 -0.809017
v 0.000000 0.500000 1.000000
v 0.000000 -0.500000 1.000000
v -0.809018 0.500000 0.587783
v -0.809018 -0.500000 0.587783
v -0.951058 0.500000 0.309013
v -0.951058 -0.500000 0.309013
v 0.000000 0.500000 -1.000000
v 0.000000 -0.500000 -1.000000
v 0.809019 0.500002 -0.587783
v 0.809019 -0.499998 -0.587783
v 0.809019 0.500000 0.587782
v 0.809019 -0.500000 0.587782
v 0.951058 0.500000 0.309013
v 0.951058 -0.500000 0.309013
v 0.309017 0.500000 -0.951056
v 0.309017 -0.500000 -0.951056
v 0.587786 0.500000 -0.809017
v 0.587786 -0.500000 -0.809017
v -0.809018 0.500000 -0.587783
v -0.809018 -0.500000 -0.587783
vn 0.4540 0.0000 0.8910
vn 0.9877 0.0000 -0.1564
vn -0.4540 0.0000 0.8910
vn -0.9877 0.0000 -0.1564
vn -0.4540 0.0000 -0.8910
vn -0.1564 0.0000 0.9877
vn -0.7071 0.0000 0.7071
vn -0.9877 0.0000 0.1564
vn -0.1564 0.0000 -0.9877
vn 0.8910 0.0000 -0.4540
vn 0.7071 0.0000 0.7071
vn 0.8910 0.0000 0.4540
vn 0.9877 0.0000 0.1564
vn -0.8910 0.0000 0.4540
vn 0.1564 0.0000 -0.9877
vn 0.4540 0.0000 -0.8910
vn 0.7071 0.0000 -0.7071
vn -0.7071 0.0000 -0.7071
vn 0.1564 0.0000 0.9877
vn -0.8910 0.0000 -0.4540
usemtl Default_OBJ.002
s 1
f 1//1 2//1 3//1 4//1
f 5//2 6//2 7//2 8//2
f 9//3 10//3 11//3 12//3
f 13//4 14//4 15//4 16//4
f 17//5 18//5 19//5 20//5
f 21//6 9//6 12//6 22//6
f 10//7 23//7 24//7 11//7
f 25//8 13//8 16//8 26//8
f 18//9 27//9 28//9 19//9
f 29//10 5//10 8//10 30//10
f 31//11 1//11 4//11 32//11
f 33//12 31//12 32//12 34//12
f 6//13 33//13 34//13 7//13
f 23//14 25//14 26//14 24//14
f 27//15 35//15 36//15 28//15
f 35//16 37//16 38//16 36//16
f 37//17 29//17 30//17 38//17
f 39//18 17//18 20//18 40//18
f 2//19 21//19 22//19 3//19
f 14//20 39//20 40//20 15//20
