# Blender v3.2.2 OBJ File: ''
# www.blender.org
mtllib lowerHemisphere.mtl
o Icosphere.002
v 0.000000 -0.000000 -1.000000
v 0.203181 -0.147618 -0.967950
v -0.077607 -0.238853 -0.967950
v 0.723607 -0.525725 -0.447220
v 0.609547 -0.442856 -0.657519
v 0.812729 -0.295238 -0.502301
v -0.251147 -0.000000 -0.967949
v -0.077607 0.238853 -0.967950
v 0.203181 0.147618 -0.967950
v 0.860698 -0.442858 -0.251151
v -0.276388 -0.850649 -0.447220
v -0.029639 -0.864184 -0.502302
v -0.155215 -0.955422 -0.251152
v -0.894426 -0.000000 -0.447216
v -0.831051 -0.238853 -0.502299
v -0.956626 -0.147618 -0.251149
v -0.276388 0.850649 -0.447220
v -0.483971 0.716565 -0.502302
v -0.436007 0.864188 -0.251152
v 0.723607 0.525725 -0.447220
v 0.531941 0.681712 -0.502302
v 0.687159 0.681715 -0.251152
v 0.687159 -0.681715 -0.251152
v -0.436007 -0.864188 -0.251152
v -0.956626 0.147618 -0.251149
v -0.155215 0.955422 -0.251152
v 0.860698 0.442858 -0.251151
v 0.809019 0.587782 -0.000000
v 0.951058 0.309013 -0.000000
v 0.587786 0.809017 -0.000000
v -0.309016 0.951057 -0.000000
v 0.000000 1.000000 -0.000000
v -0.587786 0.809017 -0.000000
v -1.000000 0.000000 0.000001
v -0.951058 0.309013 -0.000000
v -0.951058 -0.309013 0.000000
v -0.309017 -0.951056 -0.000001
v -0.587786 -0.809017 0.000000
v 0.000000 -1.000000 0.000000
v 0.809019 -0.587783 -0.000002
v 0.587786 -0.809017 0.000000
v 0.951058 -0.309013 0.000000
v 0.447216 0.850648 -0.276398
v 0.309017 0.951056 -0.000000
v 0.138199 0.951055 -0.276398
v 0.262869 0.809012 -0.525738
v -0.029639 0.864184 -0.502302
v -0.670819 0.688191 -0.276397
v -0.809018 0.587783 -0.000000
v -0.861803 0.425324 -0.276396
v -0.688189 0.499997 -0.525736
v -0.831051 0.238853 -0.502299
v -0.861803 -0.425324 -0.276396
v -0.809018 -0.587783 0.000000
v -0.670819 -0.688191 -0.276397
v -0.688189 -0.499997 -0.525736
v -0.483971 -0.716565 -0.502302
v 0.138199 -0.951055 -0.276398
v 0.309017 -0.951056 0.000000
v 0.447216 -0.850648 -0.276398
v 0.262869 -0.809012 -0.525738
v 0.531941 -0.681712 -0.502302
v 0.947213 -0.162458 -0.276396
v 1.000000 0.000000 0.000000
v 0.947213 0.162458 -0.276396
v 0.850648 -0.000000 -0.525736
v 0.812729 0.295238 -0.502301
v 0.609547 0.442856 -0.657519
v 0.425323 0.309011 -0.850654
v 0.361803 0.587779 -0.723612
v 0.138197 0.425321 -0.894429
v 0.052789 0.688186 -0.723611
v -0.162456 0.499995 -0.850654
v -0.232822 0.716563 -0.657519
v -0.447211 0.525727 -0.723612
v -0.361801 0.262863 -0.894429
v -0.638195 0.262863 -0.723609
v -0.525730 -0.000000 -0.850652
v -0.753442 -0.000000 -0.657515
v -0.638195 -0.262864 -0.723609
v -0.361801 -0.262864 -0.894428
v -0.447211 -0.525729 -0.723610
v -0.162456 -0.499995 -0.850654
v -0.232822 -0.716563 -0.657519
v 0.670817 0.162457 -0.723611
v 0.670818 -0.162458 -0.723610
v 0.447211 -0.000001 -0.894428
v 0.425323 -0.309011 -0.850654
v 0.052790 -0.688185 -0.723612
v 0.138199 -0.425321 -0.894429
v 0.361805 -0.587779 -0.723611
vn 0.0482 -0.1482 -0.9878
vn 0.7230 -0.4121 -0.5545
vn -0.1261 -0.0916 -0.9878
vn -0.1261 0.0916 -0.9878
vn 0.0482 0.1482 -0.9878
vn 0.8193 -0.4121 -0.3987
vn -0.1387 -0.9065 -0.3987
vn -0.9050 -0.1482 -0.3987
vn -0.4206 0.8149 -0.3987
vn 0.6451 0.6519 -0.3987
vn 0.7711 -0.5603 -0.3024
vn -0.2945 -0.9065 -0.3024
vn -0.9532 0.0000 -0.3024
vn -0.2945 0.9065 -0.3024
vn 0.7711 0.5603 -0.3024
vn 0.8883 0.4526 -0.0784
vn 0.7972 0.5792 -0.1702
vn 0.7049 0.7049 -0.0784
vn -0.1560 0.9846 -0.0784
vn -0.3045 0.9372 -0.1702
vn -0.4526 0.8883 -0.0784
vn -0.9846 0.1559 -0.0784
vn -0.9854 0.0000 -0.1702
vn -0.9846 -0.1560 -0.0784
vn -0.4526 -0.8883 -0.0784
vn -0.3045 -0.9372 -0.1702
vn -0.1560 -0.9846 -0.0784
vn 0.7049 -0.7049 -0.0784
vn 0.7972 -0.5792 -0.1702
vn 0.8883 -0.4526 -0.0784
vn 0.5791 0.7964 -0.1745
vn 0.4519 0.8869 -0.0962
vn 0.3035 0.9342 -0.1876
vn 0.1557 0.9831 -0.0962
vn -0.0004 0.9846 -0.1745
vn 0.5638 0.7488 -0.3485
vn 0.4151 0.7964 -0.4399
vn 0.2882 0.8869 -0.3611
vn 0.1323 0.8883 -0.4399
vn -0.0160 0.9372 -0.3485
vn -0.1387 0.9065 -0.3987
vn -0.5785 0.7968 -0.1745
vn -0.7038 0.7038 -0.0962
vn -0.7947 0.5773 -0.1876
vn -0.8869 0.4519 -0.0962
vn -0.9366 0.3039 -0.1745
vn -0.5379 0.7676 -0.3485
vn -0.6291 0.6409 -0.4399
vn -0.7544 0.5481 -0.3611
vn -0.8039 0.4003 -0.4399
vn -0.8963 0.2744 -0.3485
vn -0.9050 0.1482 -0.3987
vn -0.9366 -0.3039 -0.1745
vn -0.8869 -0.4519 -0.0962
vn -0.7947 -0.5773 -0.1876
vn -0.7038 -0.7038 -0.0962
vn -0.5785 -0.7968 -0.1745
vn -0.8963 -0.2744 -0.3485
vn -0.8039 -0.4003 -0.4399
vn -0.7544 -0.5481 -0.3611
vn -0.6291 -0.6409 -0.4399
vn -0.5379 -0.7676 -0.3485
vn -0.4206 -0.8149 -0.3987
vn -0.0004 -0.9846 -0.1745
vn 0.1557 -0.9831 -0.0962
vn 0.3035 -0.9342 -0.1876
vn 0.4519 -0.8869 -0.0962
vn 0.5791 -0.7964 -0.1745
vn -0.0160 -0.9372 -0.3485
vn 0.1323 -0.8883 -0.4399
vn 0.2882 -0.8869 -0.3611
vn 0.4151 -0.7964 -0.4399
vn 0.5638 -0.7488 -0.3485
vn 0.6451 -0.6519 -0.3987
vn 0.9363 -0.3046 -0.1745
vn 0.9831 -0.1557 -0.0962
vn 0.9822 0.0000 -0.1876
vn 0.9831 0.1557 -0.0962
vn 0.9363 0.3046 -0.1745
vn 0.8864 -0.3049 -0.3485
vn 0.8857 -0.1487 -0.4399
vn 0.9325 0.0000 -0.3611
vn 0.8857 0.1487 -0.4399
vn 0.8864 0.3049 -0.3485
vn 0.8193 0.4121 -0.3987
vn 0.6153 0.5603 -0.5545
vn 0.4674 0.4526 -0.7594
vn 0.2627 0.3039 -0.9158
vn 0.5087 0.5792 -0.6369
vn 0.3854 0.7049 -0.5955
vn 0.3105 0.4519 -0.8363
vn 0.1876 0.5773 -0.7947
vn 0.2287 0.7038 -0.6726
vn 0.1026 0.7968 -0.5955
vn 0.0891 0.2744 -0.9575
vn -0.0339 0.4003 -0.9158
vn 0.0144 0.5481 -0.8363
vn -0.1121 0.6409 -0.7594
vn -0.0711 0.7676 -0.6369
vn -0.1685 0.8149 -0.5545
vn -0.3427 0.7583 -0.5545
vn -0.2860 0.5843 -0.7594
vn -0.2079 0.3438 -0.9158
vn -0.3936 0.6628 -0.6369
vn -0.5513 0.5843 -0.5955
vn -0.3338 0.4350 -0.8363
vn -0.4911 0.3568 -0.7947
vn -0.5987 0.4350 -0.6726
vn -0.7261 0.3438 -0.5955
vn -0.2334 0.1696 -0.9575
vn -0.3912 0.0915 -0.9158
vn -0.5168 0.1830 -0.8363
vn -0.6441 0.0915 -0.7594
vn -0.7520 0.1696 -0.6369
vn -0.8271 0.0916 -0.5545
vn -0.8271 -0.0916 -0.5545
vn -0.6441 -0.0915 -0.7594
vn -0.3912 -0.0915 -0.9158
vn -0.7520 -0.1696 -0.6369
vn -0.7261 -0.3438 -0.5955
vn -0.5168 -0.1830 -0.8363
vn -0.4911 -0.3568 -0.7947
vn -0.5987 -0.4350 -0.6726
vn -0.5513 -0.5843 -0.5955
vn -0.2334 -0.1696 -0.9575
vn -0.2079 -0.3438 -0.9158
vn -0.3338 -0.4350 -0.8363
vn -0.2860 -0.5843 -0.7594
vn -0.3936 -0.6628 -0.6369
vn -0.3427 -0.7583 -0.5545
vn 0.7230 0.4121 -0.5545
vn 0.7895 0.1487 -0.5955
vn 0.7895 -0.1487 -0.5955
vn 0.7081 0.3049 -0.6369
vn 0.5749 0.3046 -0.7594
vn 0.7400 0.0000 -0.6726
vn 0.6071 -0.0000 -0.7947
vn 0.5257 0.1557 -0.8363
vn 0.3702 0.1559 -0.9158
vn 0.7081 -0.3049 -0.6369
vn 0.5749 -0.3046 -0.7594
vn 0.5257 -0.1557 -0.8363
vn 0.3702 -0.1559 -0.9158
vn 0.2885 0.0000 -0.9575
vn 0.1558 0.0000 -0.9878
vn -0.1685 -0.8149 -0.5545
vn -0.1121 -0.6409 -0.7594
vn -0.0339 -0.4003 -0.9158
vn -0.0711 -0.7676 -0.6369
vn 0.1026 -0.7968 -0.5955
vn 0.0144 -0.5481 -0.8363
vn 0.1876 -0.5773 -0.7947
vn 0.2287 -0.7038 -0.6726
vn 0.3854 -0.7049 -0.5955
vn 0.0891 -0.2744 -0.9575
vn 0.2627 -0.3039 -0.9158
vn 0.3105 -0.4519 -0.8363
vn 0.4674 -0.4526 -0.7594
vn 0.5087 -0.5792 -0.6369
vn 0.6153 -0.5603 -0.5545
usemtl Default_OBJ
s 1
f 1//1 2//1 3//1
f 4//2 5//2 6//2
f 1//3 3//3 7//3
f 1//4 7//4 8//4
f 1//5 8//5 9//5
f 4//6 6//6 10//6
f 11//7 12//7 13//7
f 14//8 15//8 16//8
f 17//9 18//9 19//9
f 20//10 21//10 22//10
f 4//11 10//11 23//11
f 11//12 13//12 24//12
f 14//13 16//13 25//13
f 17//14 19//14 26//14
f 20//15 22//15 27//15
f 27//16 28//16 29//16
f 27//17 22//17 28//17
f 22//18 30//18 28//18
f 26//19 31//19 32//19
f 26//20 19//20 31//20
f 19//21 33//21 31//21
f 25//22 34//22 35//22
f 25//23 16//23 34//23
f 16//24 36//24 34//24
f 24//25 37//25 38//25
f 24//26 13//26 37//26
f 13//27 39//27 37//27
f 23//28 40//28 41//28
f 23//29 10//29 40//29
f 10//30 42//30 40//30
f 22//31 43//31 30//31
f 30//32 43//32 44//32
f 43//33 45//33 44//33
f 44//34 45//34 32//34
f 45//35 26//35 32//35
f 22//36 21//36 43//36
f 21//37 46//37 43//37
f 43//38 46//38 45//38
f 46//39 47//39 45//39
f 45//40 47//40 26//40
f 47//41 17//41 26//41
f 19//42 48//42 33//42
f 33//43 48//43 49//43
f 48//44 50//44 49//44
f 49//45 50//45 35//45
f 50//46 25//46 35//46
f 19//47 18//47 48//47
f 18//48 51//48 48//48
f 48//49 51//49 50//49
f 51//50 52//50 50//50
f 50//51 52//51 25//51
f 52//52 14//52 25//52
f 16//53 53//53 36//53
f 36//54 53//54 54//54
f 53//55 55//55 54//55
f 54//56 55//56 38//56
f 55//57 24//57 38//57
f 16//58 15//58 53//58
f 15//59 56//59 53//59
f 53//60 56//60 55//60
f 56//61 57//61 55//61
f 55//62 57//62 24//62
f 57//63 11//63 24//63
f 13//64 58//64 39//64
f 39//65 58//65 59//65
f 58//66 60//66 59//66
f 59//67 60//67 41//67
f 60//68 23//68 41//68
f 13//69 12//69 58//69
f 12//70 61//70 58//70
f 58//71 61//71 60//71
f 61//72 62//72 60//72
f 60//73 62//73 23//73
f 62//74 4//74 23//74
f 10//75 63//75 42//75
f 42//76 63//76 64//76
f 63//77 65//77 64//77
f 64//78 65//78 29//78
f 65//79 27//79 29//79
f 10//80 6//80 63//80
f 6//81 66//81 63//81
f 63//82 66//82 65//82
f 66//83 67//83 65//83
f 65//84 67//84 27//84
f 67//85 20//85 27//85
f 68//86 21//86 20//86
f 69//87 70//87 68//87
f 9//88 71//88 69//88
f 68//89 70//89 21//89
f 70//90 46//90 21//90
f 69//91 71//91 70//91
f 71//92 72//92 70//92
f 70//93 72//93 46//93
f 72//94 47//94 46//94
f 9//95 8//95 71//95
f 8//96 73//96 71//96
f 71//97 73//97 72//97
f 73//98 74//98 72//98
f 72//99 74//99 47//99
f 74//100 17//100 47//100
f 74//101 18//101 17//101
f 73//102 75//102 74//102
f 8//103 76//103 73//103
f 74//104 75//104 18//104
f 75//105 51//105 18//105
f 73//106 76//106 75//106
f 76//107 77//107 75//107
f 75//108 77//108 51//108
f 77//109 52//109 51//109
f 8//110 7//110 76//110
f 7//111 78//111 76//111
f 76//112 78//112 77//112
f 78//113 79//113 77//113
f 77//114 79//114 52//114
f 79//115 14//115 52//115
f 79//116 15//116 14//116
f 78//117 80//117 79//117
f 7//118 81//118 78//118
f 79//119 80//119 15//119
f 80//120 56//120 15//120
f 78//121 81//121 80//121
f 81//122 82//122 80//122
f 80//123 82//123 56//123
f 82//124 57//124 56//124
f 7//125 3//125 81//125
f 3//126 83//126 81//126
f 81//127 83//127 82//127
f 83//128 84//128 82//128
f 82//129 84//129 57//129
f 84//130 11//130 57//130
f 67//131 68//131 20//131
f 66//132 85//132 67//132
f 6//133 86//133 66//133
f 67//134 85//134 68//134
f 85//135 69//135 68//135
f 66//136 86//136 85//136
f 86//137 87//137 85//137
f 85//138 87//138 69//138
f 87//139 9//139 69//139
f 6//140 5//140 86//140
f 5//141 88//141 86//141
f 86//142 88//142 87//142
f 88//143 2//143 87//143
f 87//144 2//144 9//144
f 2//145 1//145 9//145
f 84//146 12//146 11//146
f 83//147 89//147 84//147
f 3//148 90//148 83//148
f 84//149 89//149 12//149
f 89//150 61//150 12//150
f 83//151 90//151 89//151
f 90//152 91//152 89//152
f 89//153 91//153 61//153
f 91//154 62//154 61//154
f 3//155 2//155 90//155
f 2//156 88//156 90//156
f 90//157 88//157 91//157
f 88//158 5//158 91//158
f 91//159 5//159 62//159
f 5//160 4//160 62//160
