# Blender v2.82 (sub 7) OBJ File: ''
# www.blender.org
mtllib lowResThreeSpheres.mtl
o Sphere
v -0.204401 0.885148 -0.530755
v -0.321139 0.152368 -0.975815
v 0.535892 0.509071 -0.745914
v 0.345371 -0.397205 -0.949516
v 0.381094 -0.957124 -0.247577
v 0.309862 0.943318 -0.282181
v 1.048309 -0.158814 -0.226285
v 0.896644 0.536957 0.154152
v 0.758648 -0.455126 0.554121
v -0.597401 0.583613 0.679407
v 0.376694 0.247419 0.980801
v -0.126525 -0.505273 0.951111
v -0.967598 -0.188229 0.397977
v 0.008515 0.998068 0.370999
v -0.597196 -0.785468 0.362565
v 0.073739 -1.024805 0.154873
v -0.768860 0.643993 -0.294522
v -0.976248 -0.030688 -0.390646
v -0.532548 -0.722228 -0.589639
vt 0.827247 0.811383
vt 0.734375 1.000000
vt 0.608795 0.860754
vt 0.652882 0.664370
vt 0.804071 0.544218
vt 0.690259 0.381378
vt 0.530784 0.450254
vt 0.473272 0.663288
vt 0.399088 0.361369
vt 0.594211 0.175775
vt 0.558597 0.074202
vt 0.308653 0.568614
vt 0.229729 0.340371
vt 0.132544 0.672405
vt 1.000000 0.334687
vt 0.943585 0.488329
vt 0.874999 0.278386
vt 0.996354 0.174786
vt 0.250492 0.863084
vt 0.000000 0.725079
vt 0.058578 0.450163
vt 0.235909 0.074785
vt 0.085170 0.234428
vt 0.985236 0.918502
vt 0.941907 0.713127
vt 0.945930 0.046024
vt 0.000000 0.479867
vn -0.0589 0.9921 -0.1103
vn 0.2095 0.7626 -0.6120
vn 0.0142 0.5174 -0.8556
vn 0.7160 0.0063 -0.6980
vn 0.6823 0.6693 -0.2942
vn 0.7661 -0.6414 0.0408
vn 0.9360 0.0117 0.3518
vn 0.5221 -0.8115 0.2623
vn 0.8236 0.1098 0.5565
vn 0.4041 -0.3042 0.8626
vn -0.2517 0.1304 0.9590
vn -0.8500 -0.5183 -0.0942
vn -0.8486 -0.5209 -0.0922
vn -0.2456 -0.3413 -0.9073
vn 0.1851 0.1782 -0.9664
vn 0.6802 -0.5558 -0.4779
vn 0.8545 0.3800 -0.3543
vn 0.4843 0.8617 0.1512
vn 0.4873 0.6820 0.5454
vn 0.3002 -0.7625 0.5731
vn -0.0273 0.6222 0.7824
vn -0.9108 0.3700 0.1833
vn -0.1418 -0.8450 0.5157
vn -0.5582 -0.0345 0.8290
vn -0.6039 -0.4149 0.6805
vn -0.5085 0.8492 0.1422
vn -0.4000 0.9163 -0.0203
vn -0.3583 -0.9296 -0.0861
vn -0.5078 0.5049 -0.6980
vn -0.6805 0.3042 -0.6667
vn -0.6259 -0.1834 -0.7581
vn 0.0331 -0.7805 -0.6243
vn -0.1437 -0.9521 -0.2699
vn -0.9563 0.2844 0.0673
usemtl None
s off
f 1/1/1 14/2/1 6/3/1
f 6/3/2 3/4/2 1/1/2
f 1/1/3 3/4/3 2/5/3
f 4/6/4 3/4/4 7/7/4
f 6/3/5 8/8/5 3/4/5
f 7/7/6 9/9/6 5/10/6
f 8/8/7 9/9/7 7/7/7
f 5/10/8 9/9/8 16/11/8
f 8/8/9 11/12/9 9/9/9
f 11/12/10 12/13/10 9/9/10
f 10/14/11 12/13/11 11/12/11
f 13/15/12 18/16/12 19/17/12
f 13/15/13 19/17/13 15/18/13
f 2/5/14 4/6/14 19/17/14
f 2/5/15 3/4/15 4/6/15
f 5/10/16 4/6/16 7/7/16
f 3/4/17 8/8/17 7/7/17
f 6/3/18 14/19/18 8/8/18
f 8/8/19 14/19/19 11/12/19
f 16/11/20 9/9/20 12/13/20
f 14/19/21 10/14/21 11/12/21
f 17/20/22 13/21/22 10/14/22
f 16/22/23 12/13/23 15/23/23
f 12/13/24 10/14/24 13/21/24
f 12/13/25 13/21/25 15/23/25
f 10/14/26 14/19/26 17/20/26
f 14/24/27 1/1/27 17/25/27
f 15/18/28 19/17/28 16/26/28
f 17/25/29 1/1/29 2/5/29
f 18/16/30 17/25/30 2/5/30
f 18/16/31 2/5/31 19/17/31
f 19/17/32 4/6/32 5/10/32
f 16/26/33 19/17/33 5/10/33
f 17/20/34 18/27/34 13/21/34
o Sphere.001
v -2.460021 0.885148 -0.530755
v -2.576759 0.152368 -0.975815
v -1.719728 0.509071 -0.745914
v -1.910249 -0.397205 -0.949516
v -1.874526 -0.957124 -0.247577
v -1.945758 0.943318 -0.282181
v -1.207311 -0.158814 -0.226285
v -1.358976 0.536957 0.154152
v -1.496972 -0.455126 0.554121
v -2.853021 0.583613 0.679407
v -1.878926 0.247419 0.980801
v -2.382145 -0.505273 0.951111
v -3.223218 -0.188229 0.397977
v -2.247105 0.998068 0.370999
v -2.852816 -0.785468 0.362565
v -2.181881 -1.024805 0.154873
v -3.024480 0.643993 -0.294522
v -3.231868 -0.030688 -0.390646
v -2.788168 -0.722228 -0.589639
vt 0.827247 0.811383
vt 0.734375 1.000000
vt 0.608795 0.860754
vt 0.652882 0.664370
vt 0.804071 0.544218
vt 0.690259 0.381378
vt 0.530784 0.450254
vt 0.473272 0.663288
vt 0.399088 0.361369
vt 0.594211 0.175775
vt 0.558597 0.074202
vt 0.308653 0.568614
vt 0.229729 0.340371
vt 0.132544 0.672405
vt 1.000000 0.334687
vt 0.943585 0.488329
vt 0.874999 0.278386
vt 0.996354 0.174786
vt 0.250492 0.863084
vt 0.000000 0.725079
vt 0.058578 0.450163
vt 0.235909 0.074785
vt 0.085170 0.234428
vt 0.985236 0.918502
vt 0.941907 0.713127
vt 0.945930 0.046024
vt 0.000000 0.479867
vn -0.0589 0.9921 -0.1103
vn 0.2095 0.7626 -0.6120
vn 0.0142 0.5174 -0.8556
vn 0.7160 0.0063 -0.6980
vn 0.6823 0.6693 -0.2942
vn 0.7661 -0.6414 0.0408
vn 0.9360 0.0117 0.3518
vn 0.5221 -0.8115 0.2623
vn 0.8236 0.1098 0.5565
vn 0.4041 -0.3042 0.8626
vn -0.2517 0.1304 0.9590
vn -0.8500 -0.5183 -0.0942
vn -0.8486 -0.5209 -0.0922
vn -0.2456 -0.3413 -0.9073
vn 0.1851 0.1782 -0.9664
vn 0.6802 -0.5558 -0.4779
vn 0.8545 0.3800 -0.3543
vn 0.4843 0.8617 0.1512
vn 0.4873 0.6820 0.5454
vn 0.3002 -0.7625 0.5731
vn -0.0273 0.6222 0.7824
vn -0.9108 0.3700 0.1833
vn -0.1418 -0.8450 0.5157
vn -0.5582 -0.0345 0.8290
vn -0.6039 -0.4149 0.6805
vn -0.5085 0.8492 0.1422
vn -0.4000 0.9163 -0.0203
vn -0.3583 -0.9296 -0.0861
vn -0.5078 0.5049 -0.6980
vn -0.6805 0.3042 -0.6667
vn -0.6259 -0.1834 -0.7581
vn 0.0331 -0.7805 -0.6243
vn -0.1437 -0.9521 -0.2699
vn -0.9563 0.2844 0.0673
usemtl None
s off
f 20/28/35 33/29/35 25/30/35
f 25/30/36 22/31/36 20/28/36
f 20/28/37 22/31/37 21/32/37
f 23/33/38 22/31/38 26/34/38
f 25/30/39 27/35/39 22/31/39
f 26/34/40 28/36/40 24/37/40
f 27/35/41 28/36/41 26/34/41
f 24/37/42 28/36/42 35/38/42
f 27/35/43 30/39/43 28/36/43
f 30/39/44 31/40/44 28/36/44
f 29/41/45 31/40/45 30/39/45
f 32/42/46 37/43/46 38/44/46
f 32/42/47 38/44/47 34/45/47
f 21/32/48 23/33/48 38/44/48
f 21/32/49 22/31/49 23/33/49
f 24/37/50 23/33/50 26/34/50
f 22/31/51 27/35/51 26/34/51
f 25/30/52 33/46/52 27/35/52
f 27/35/53 33/46/53 30/39/53
f 35/38/54 28/36/54 31/40/54
f 33/46/55 29/41/55 30/39/55
f 36/47/56 32/48/56 29/41/56
f 35/49/57 31/40/57 34/50/57
f 31/40/58 29/41/58 32/48/58
f 31/40/59 32/48/59 34/50/59
f 29/41/60 33/46/60 36/47/60
f 33/51/61 20/28/61 36/52/61
f 34/45/62 38/44/62 35/53/62
f 36/52/63 20/28/63 21/32/63
f 37/43/64 36/52/64 21/32/64
f 37/43/65 21/32/65 38/44/65
f 38/44/66 23/33/66 24/37/66
f 35/53/67 38/44/67 24/37/67
f 36/47/68 37/54/68 32/48/68
o Sphere.002
v -4.738301 0.885148 -0.530755
v -4.855039 0.152368 -0.975815
v -3.998008 0.509071 -0.745914
v -4.188529 -0.397205 -0.949516
v -4.152805 -0.957124 -0.247577
v -4.224038 0.943318 -0.282181
v -3.485591 -0.158814 -0.226285
v -3.637256 0.536957 0.154152
v -3.775252 -0.455126 0.554121
v -5.131301 0.583613 0.679407
v -4.157206 0.247419 0.980801
v -4.660424 -0.505273 0.951111
v -5.501498 -0.188229 0.397977
v -4.525385 0.998068 0.370999
v -5.131095 -0.785468 0.362565
v -4.460160 -1.024805 0.154873
v -5.302760 0.643993 -0.294522
v -5.510148 -0.030688 -0.390646
v -5.066448 -0.722228 -0.589639
vt 0.827247 0.811383
vt 0.734375 1.000000
vt 0.608795 0.860754
vt 0.652882 0.664370
vt 0.804071 0.544218
vt 0.690259 0.381378
vt 0.530784 0.450254
vt 0.473272 0.663288
vt 0.399088 0.361369
vt 0.594211 0.175775
vt 0.558597 0.074202
vt 0.308653 0.568614
vt 0.229729 0.340371
vt 0.132544 0.672405
vt 1.000000 0.334687
vt 0.943585 0.488329
vt 0.874999 0.278386
vt 0.996354 0.174786
vt 0.250492 0.863084
vt 0.000000 0.725079
vt 0.058578 0.450163
vt 0.235909 0.074785
vt 0.085170 0.234428
vt 0.985236 0.918502
vt 0.941907 0.713127
vt 0.945930 0.046024
vt 0.000000 0.479867
vn -0.0589 0.9921 -0.1103
vn 0.2095 0.7626 -0.6120
vn 0.0142 0.5174 -0.8556
vn 0.7160 0.0063 -0.6980
vn 0.6823 0.6693 -0.2942
vn 0.7661 -0.6414 0.0408
vn 0.9360 0.0117 0.3518
vn 0.5221 -0.8115 0.2623
vn 0.8236 0.1098 0.5565
vn 0.4041 -0.3042 0.8626
vn -0.2517 0.1304 0.9590
vn -0.8500 -0.5183 -0.0942
vn -0.8486 -0.5209 -0.0922
vn -0.2456 -0.3413 -0.9073
vn 0.1851 0.1782 -0.9664
vn 0.6802 -0.5558 -0.4779
vn 0.8545 0.3800 -0.3543
vn 0.4843 0.8617 0.1512
vn 0.4873 0.6820 0.5454
vn 0.3002 -0.7625 0.5731
vn -0.0273 0.6222 0.7824
vn -0.9108 0.3700 0.1833
vn -0.1418 -0.8450 0.5157
vn -0.5582 -0.0345 0.8290
vn -0.6039 -0.4149 0.6805
vn -0.5085 0.8492 0.1422
vn -0.4000 0.9163 -0.0203
vn -0.3583 -0.9296 -0.0861
vn -0.5078 0.5049 -0.6980
vn -0.6805 0.3042 -0.6667
vn -0.6259 -0.1834 -0.7581
vn 0.0331 -0.7805 -0.6243
vn -0.1437 -0.9521 -0.2699
vn -0.9563 0.2844 0.0673
usemtl None
s off
f 39/55/69 52/56/69 44/57/69
f 44/57/70 41/58/70 39/55/70
f 39/55/71 41/58/71 40/59/71
f 42/60/72 41/58/72 45/61/72
f 44/57/73 46/62/73 41/58/73
f 45/61/74 47/63/74 43/64/74
f 46/62/75 47/63/75 45/61/75
f 43/64/76 47/63/76 54/65/76
f 46/62/77 49/66/77 47/63/77
f 49/66/78 50/67/78 47/63/78
f 48/68/79 50/67/79 49/66/79
f 51/69/80 56/70/80 57/71/80
f 51/69/81 57/71/81 53/72/81
f 40/59/82 42/60/82 57/71/82
f 40/59/83 41/58/83 42/60/83
f 43/64/84 42/60/84 45/61/84
f 41/58/85 46/62/85 45/61/85
f 44/57/86 52/73/86 46/62/86
f 46/62/87 52/73/87 49/66/87
f 54/65/88 47/63/88 50/67/88
f 52/73/89 48/68/89 49/66/89
f 55/74/90 51/75/90 48/68/90
f 54/76/91 50/67/91 53/77/91
f 50/67/92 48/68/92 51/75/92
f 50/67/93 51/75/93 53/77/93
f 48/68/94 52/73/94 55/74/94
f 52/78/95 39/55/95 55/79/95
f 53/72/96 57/71/96 54/80/96
f 55/79/97 39/55/97 40/59/97
f 56/70/98 55/79/98 40/59/98
f 56/70/99 40/59/99 57/71/99
f 57/71/100 42/60/100 43/64/100
f 54/80/101 57/71/101 43/64/101
f 55/74/102 56/81/102 51/75/102
